<?xml version="1.0" encoding="utf-8"?>
<!-- Generator: Adobe Illustrator 23.0.0, SVG Export Plug-In . SVG Version: 6.00 Build 0)  -->
<svg version="1.1" id="图层_1" xmlns="http://www.w3.org/2000/svg" xmlns:xlink="http://www.w3.org/1999/xlink" x="0px" y="0px"
	 viewBox="0 0 200 200" style="enable-background:new 0 0 200 200;" xml:space="preserve">
<style type="text/css">
	.st0{fill:#434343;}
</style>
<path class="st0" d="M13.5,70.7H7.1c-3.1,0-5.7,2.5-5.8,5.6v16.4h17.8V76.3C19.2,73.1,16.6,70.6,13.5,70.7z M58.3,26.7H52
	c-3.2,0.1-5.8,2.7-5.8,5.9v60.1h17.8V32.6C64.1,29.4,61.5,26.7,58.3,26.7C58.3,26.7,58.3,26.7,58.3,26.7z M103.2,4.7h-6.4
	c-3.1,0-5.7,2.5-5.7,5.6v82.4h17.8V10.3C108.8,7.2,106.3,4.7,103.2,4.7z M148,43.8h-6.3c-3.1,0-5.6,2.4-5.8,5.5v43.4h17.8V49.3
	C153.7,46.2,151.1,43.7,148,43.8L148,43.8z M192.9,70.7h-6.4c-3.1,0-5.7,2.5-5.8,5.6v16.4h17.9V76.3C198.6,73.1,196,70.6,192.9,70.7
	C192.9,70.7,192.9,70.7,192.9,70.7z M180.8,124.6c0,3.1,2.6,5.6,5.7,5.6c0,0,0,0,0,0h6.4c3.1,0,5.8-2.5,5.8-5.6v-16.4h-17.8
	L180.8,124.6L180.8,124.6z M135.9,168.3c0,3.3,2.6,5.9,5.8,5.9h6.3c3.2-0.1,5.7-2.7,5.8-5.9v-60.1h-17.9V168.3L135.9,168.3z
	 M91.1,190.6c0,3,2.6,5.6,5.7,5.6h6.4c3.1,0,5.7-2.5,5.7-5.6v-82.4H91.1C91.1,108.2,91.1,190.6,91.1,190.6z M46.2,151.6
	c0,3.1,2.6,5.5,5.7,5.5h6.3c3.1,0,5.7-2.4,5.8-5.5v-43.4H46.2L46.2,151.6L46.2,151.6z M1.4,124.6c0,3.1,2.6,5.6,5.7,5.6c0,0,0,0,0,0
	h6.3c3.1,0,5.8-2.5,5.8-5.6v-16.4H1.4V124.6z"/>
</svg>
