<?xml version="1.0" encoding="utf-8"?>
<!-- Generator: Adobe Illustrator 23.0.0, SVG Export Plug-In . SVG Version: 6.00 Build 0)  -->
<svg version="1.1" id="图层_1" xmlns="http://www.w3.org/2000/svg" xmlns:xlink="http://www.w3.org/1999/xlink" x="0px" y="0px"
	 viewBox="0 0 233.2 200" style="enable-background:new 0 0 233.2 200;" xml:space="preserve">
<style type="text/css">
	.st0{fill:#434343;}
	.st1{fill:none;stroke:#434343;stroke-width:9;stroke-miterlimit:10;}
</style>
<path class="st0" d="M16.7,16.7v166.7h200V16.7H16.7z M16.7,0h200c9.2,0,16.7,7.5,16.7,16.7c0,0,0,0,0,0v166.7
	c0,9.2-7.5,16.7-16.7,16.7l0,0h-200C7.5,200,0,192.5,0,183.3V16.7C0,7.5,7.5,0,16.7,0z"/>
<path class="st0" d="M50,66.7c0,9.2,7.5,16.7,16.7,16.7s16.7-7.5,16.7-16.7S75.9,50,66.7,50S50,57.5,50,66.7z"/>
<path class="st1" d="M25,147.6l47.3-39.3l30.8,15.3L158.6,75l49.8,63.1V175H25V147.6z"/>
</svg>
