<?xml version="1.0" encoding="utf-8"?>
<!-- Generator: Adobe Illustrator 23.0.0, SVG Export Plug-In . SVG Version: 6.00 Build 0)  -->
<svg version="1.1" id="图层_1" xmlns="http://www.w3.org/2000/svg" xmlns:xlink="http://www.w3.org/1999/xlink" x="0px" y="0px"
	 viewBox="0 0 200 200" style="enable-background:new 0 0 200 200;" xml:space="preserve">
<style type="text/css">
	.st0{fill:#434343;}
</style>
<path class="st0" d="M174.4,69C171.9,30.6,139.7,0.8,100,0.8S29.3,30.6,25.6,69C11.9,72.7,0.8,85.1,0.8,100v12.4
	c-0.2,17,13.4,30.8,30.4,31c0.2,0,0.4,0,0.6,0h18.6V69H38c3.7-31,29.8-55.8,62-55.8c32.3,0,58.3,24.8,62,55.8h-12.4v74.4H162
	c-6.2,24.8-28.5,44.6-55.8,44.6c-3.7,0-8.7,0-12.4-1.3V198c3.7,1.3,8.7,1.3,12.4,1.3c33.5,0,62-24.8,67-55.8
	c1.3-3.7,1.3-7.4,1.3-12.4H162V81.4h8.7c8.7,0,16.1,8.7,16.1,21.1v8.7c0,11.2-7.4,21.1-16.1,21.1h3.7c0,3.7,0,7.4-1.3,12.4
	c14.9-3.7,26-17.4,26-32.2V100C199.2,85.1,188,72.7,174.4,69L174.4,69z M29.3,81.4H38v50.9h-8.7c-8.7-1.3-16.1-9.9-16.1-22.3v-7.4
	C13.2,90.1,20.6,81.4,29.3,81.4z"/>
</svg>
