<?xml version="1.0" encoding="utf-8"?>
<!-- Generator: Adobe Illustrator 23.0.0, SVG Export Plug-In . SVG Version: 6.00 Build 0)  -->
<svg version="1.1" id="图层_1" xmlns="http://www.w3.org/2000/svg" xmlns:xlink="http://www.w3.org/1999/xlink" x="0px" y="0px"
	 viewBox="0 0 200 200" style="enable-background:new 0 0 200 200;" xml:space="preserve">
<style type="text/css">
	.st0{fill:#434343;}
	.st1{font-family:'DFPKingGothicGB-Medium';}
	.st2{font-size:221.1754px;}
</style>
<path class="st0" d="M113.9,89.2h79.5c1.6,0,2.9,0.9,2.9,2v10c0,1.1-1.3,2-2.9,2h-79.5c-1.6,0-2.9-0.9-2.9-2v-10
	C111,90.1,112.3,89.2,113.9,89.2z"/>
<path class="st0" d="M113.9,127h79.5c1.6,0,2.9,0.9,2.9,2v10c0,1.1-1.3,2-2.9,2h-79.5c-1.6,0-2.9-0.9-2.9-2v-10
	C111,127.9,112.3,127,113.9,127z"/>
<path class="st0" d="M113.9,164.8h79.5c1.6,0,2.9,0.9,2.9,2v10c0,1.1-1.3,2-2.9,2h-79.5c-1.6,0-2.9-0.9-2.9-2v-10
	C111,165.7,112.3,164.8,113.9,164.8z"/>
<text transform="matrix(1 0 0 1 3.6756 178.786)" class="st0 st1 st2">T</text>
</svg>
