<?xml version="1.0" encoding="utf-8"?>
<!-- Generator: Adobe Illustrator 23.0.0, SVG Export Plug-In . SVG Version: 6.00 Build 0)  -->
<svg version="1.1" id="图层_1" xmlns="http://www.w3.org/2000/svg" xmlns:xlink="http://www.w3.org/1999/xlink" x="0px" y="0px"
	 viewBox="0 0 200 200" style="enable-background:new 0 0 200 200;" xml:space="preserve">
<style type="text/css">
	.st0{fill:#434343;}
</style>
<path class="st0" d="M161.8,162.5L128,119.8c-0.7-1-1.9-1.5-3.1-1.5H69.6c-9.1,0-16.4-7.3-16.4-16.4V28.6c0-9.1,7.3-16.4,16.4-16.4
	h101.4c9.1,0,16.4,7.3,16.4,16.4v73.2c0,9.1-7.3,16.4-16.4,16.4h-2.7c-2.2,0-4,1.8-4,4l0.3,39.2C164.7,163,162.7,163.7,161.8,162.5
	L161.8,162.5z M69.6,23.9c-2.6,0-4.7,2.1-4.7,4.7v73.2c0,2.6,2.1,4.7,4.7,4.7h61c1.2,0,2.4,0.5,3.1,1.5l19.1,24.2l-0.2-21.7
	c0-2.2,1.8-4,4-4h14.5c2.6,0,4.7-2.1,4.7-4.7V28.6c0-2.6-2.1-4.7-4.7-4.7H69.6z"/>
<path class="st0" d="M35.6,185.6l0.3-42.5c0-0.1-0.1-0.1-0.1-0.1H25.4c-6.9,0-12.6-5.6-12.6-12.6V54.6c0-2.9,2.3-5.3,5.3-5.3h1.2
	c2.9,0,5.3,2.4,5.3,5.3v75.7c0,0.5,0.4,0.8,0.8,0.8h20.2c1.2,0,2.2,1,2.2,2.2l-0.2,23.5l18.6-23.6c1-1.3,2.6-2.1,4.3-2.1h64.1
	c5.3-0.1,4.6-0.2,5,0.4l7.8,11c0,0.1-6.4,0-6.4,0L73.5,143c0,0-0.1,0-0.1,0l-34.6,43.8C37.8,188.1,35.5,187.3,35.6,185.6z"/>
<path class="st0" d="M12.8,36.9c0,3.2,2.6,5.9,5.9,5.9s5.9-2.6,5.9-5.9c0-3.2-2.6-5.9-5.9-5.9S12.8,33.7,12.8,36.9z"/>
<path class="st0" d="M159.8,73.8c-1.6,2.3-4.6,2.9-7,1.5c-15.1-9.1-30.8-11.7-47-7.6c-8,2-14.2,5.2-17.8,7.5
	c-2.2,1.3-5.1,0.8-6.8-1.2l-0.8-1c-2-2.4-1.3-6.1,1.3-7.7c4.5-2.7,11.8-6.5,21.2-8.9c9.2-2.3,18.5-2.9,27.7-1.5
	c9.7,1.4,19.2,4.9,28.3,10.4c2.6,1.6,3.3,4.9,1.6,7.4L159.8,73.8L159.8,73.8z"/>
</svg>
