<?xml version="1.0" encoding="utf-8"?>
<!-- Generator: Adobe Illustrator 23.0.0, SVG Export Plug-In . SVG Version: 6.00 Build 0)  -->
<svg version="1.1" id="图层_1" xmlns="http://www.w3.org/2000/svg" xmlns:xlink="http://www.w3.org/1999/xlink" x="0px" y="0px"
	 viewBox="0 0 244.9 200" style="enable-background:new 0 0 244.9 200;" xml:space="preserve">
<style type="text/css">
	.st0{fill:#434343;}
</style>
<path class="st0" d="M125.1,101.4c13-11,20.5-27.3,20.4-44.4c0-31.5-24.5-57-54.8-57S35.9,25.5,35.9,57
	c-0.1,17.1,7.4,33.3,20.4,44.4C23.3,115.5,0,149.3,0,188.7v1.7c0.1,5.3,4.5,9.6,9.8,9.6c5.4,0,9.8-4.4,9.8-9.8c0-0.1,0-0.1,0-0.2
	v-1.3c0-40.9,31.9-74,71.2-74s71.2,33.1,71.2,74v1.3c-0.1,5.4,4.2,9.8,9.6,9.9c0.1,0,0.1,0,0.2,0c5.3,0,9.7-4.3,9.8-9.6v-1.7
	C181.4,149.3,158.1,115.5,125.1,101.4L125.1,101.4z M90.7,93.6c-19.5,0-35.2-16.4-35.2-36.6s15.7-36.7,35.2-36.7
	s35.2,16.4,35.2,36.6S110.2,93.6,90.7,93.6L90.7,93.6z"/>
<path class="st0" d="M154.4,0c30.2,0,54.7,25.5,54.7,57c0,17.9-8,29.3-20.4,39.8c33.1,14.1,56.3,52.5,56.3,92v1.7
	c-0.1,5.3-4.5,9.6-9.8,9.6c-5.4,0-9.7-4.4-9.7-9.8c0,0,0-0.1,0-0.1v-1.3c0-40.9-27-80.1-66.3-80.1h0.2c-5.8,0-10.5-4.7-10.5-10.5
	c0-5.8,4.7-10.5,10.5-10.5l0,0h-0.3c19.5,0,30.4-10.3,30.4-30.6s-15.7-36.7-35.2-36.7c-1.6,0-3.2,0.2-4.8,0.5
	c-4.8,0.8-9.3-2.4-10.1-7.1c0,0,0-0.1,0-0.1v-0.7C138.7,6.8,143,1.3,149,0.3C150.8,0.1,152.6,0,154.4,0z"/>
</svg>
