<?xml version="1.0" encoding="utf-8"?>
<!-- Generator: Adobe Illustrator 23.0.0, SVG Export Plug-In . SVG Version: 6.00 Build 0)  -->
<svg version="1.1" id="图层_1" xmlns="http://www.w3.org/2000/svg" xmlns:xlink="http://www.w3.org/1999/xlink" x="0px" y="0px"
	 viewBox="0 0 200 200" style="enable-background:new 0 0 200 200;" xml:space="preserve">
<style type="text/css">
	.st0{fill:none;stroke:#434343;stroke-width:8;stroke-miterlimit:10;}
	.st1{fill:#434343;}
</style>
<path class="st0" d="M95.5,12.7H126c-0.9,2.1-1.7,3.9-2.5,5.7c-5.7,12.6-11.4,25.1-16.9,37.7c-1,2.3-2.2,3.1-4.7,3.1
	C94,59,86,59.1,77.5,59.1C83.6,43.4,89.6,28,95.5,12.7z M166.9,12.6c-1.4,3.4-2.6,6.5-3.8,9.5c-4.5,11.3-9.2,22.5-13.6,33.9
	c-1,2.6-2.3,3.3-4.9,3.3c-8.2-0.2-16.3-0.1-25-0.1c2.4-6.1,4.5-11.8,6.7-17.4c3.4-8.8,6.7-17.5,10.2-26.3c0.5-1.2,2-2.8,3-2.8
	C148.5,12.5,157.4,12.6,166.9,12.6z M82.7,12.6c-0.3,1-0.4,1.8-0.7,2.5C76,29,70.1,42.8,64,56.6c-0.5,1.1-2.2,2.4-3.3,2.4
	c-8.1,0.2-16.2,0.1-24.7,0.1c0.4-1.3,0.7-2.4,1.1-3.4c5.2-13.3,10.4-26.6,15.5-40c0.9-2.3,1.9-3.3,4.5-3.3
	C65.5,12.7,74,12.6,82.7,12.6z M1.4,59.2C1.8,50.8,1.5,42.7,2.9,35C5.2,22.3,16,13.6,29.3,12.7c3.8-0.3,7.6,0,11.9,0
	c-0.6,1.5-1,2.7-1.5,3.9c-5.7,13-11.4,26.1-16.9,39.2c-1.1,2.7-2.5,3.5-5.3,3.4C12.5,59,7.5,59.2,1.4,59.2z M180,14.7
	c8.7,3.5,14.2,9.5,16.9,17.8c2.7,8.6,1.5,17.5,1.6,26.5h-35.7C168.6,44.1,174.2,29.5,180,14.7z M198.5,77.6c0-1.5-0.2-3-0.4-4.6H2
	c-0.1,1.1-0.2,1.8-0.2,2.4c0,31.6-0.2,63.1,0.1,94.7C2,187.9,14.5,199.8,32.3,200c13.7,0.1,27.3,0,41,0c31.6,0,63.1,0.1,94.7,0
	c17.3,0,30.6-12.4,30.6-28.4C198.5,140.2,198.5,108.9,198.5,77.6z"/>
<path class="st1" d="M132.5,147.6c-14,7.1-27,15.8-40.7,23.7c-10.6,6.2-21.3,0.1-21.4-12.2c-0.1-16.5-0.1-32.9,0-49.4
	c0-8,6.1-14.5,14.8-14.8c1.1,0.5,3.6,1.1,5.7,2.4c14,8.1,27.7,16.5,41.8,24.5C143.9,128.1,144.3,141.6,132.5,147.6z"/>
</svg>
